<?xml version="1.0" encoding="UTF-8"?>
<svg id="Layer_1" data-name="Layer 1" xmlns="http://www.w3.org/2000/svg" width="400" height="150" viewBox="0 0 400 150">
  <path d="M197.5,0h-72.5l-27.5,72.5L72.5,0H0v150h55V60l32.5,90h20l35-90v90h55l-52.5-75L197.5,0Z" fill="#202326"/>
  <path d="M232.5,85v-30l-20,30h20Z" fill="#f86200"/>
  <path d="M210,0l-50,75,52.5,75h187.5V0h-190ZM282.5,120h-15v20h-35v-20h-25l-32.5-45,45-60h50v70h15v35h-2.5ZM385,140h-95v-30c47.5-37.5,55-45,55-52.5,0-5-5-7.5-10-7.5-10,0-17.5,2.5-25,12.5l-2.5,2.5-22.5-25v-2.5c12.5-12.5,30-20,47.5-20,30,0,50,17.5,50,42.5,0,17.5-10,30-35,50h35v30h2.5Z" fill="#f86200"/>
</svg>
